# xmcd CD database file
#
# Track frame offsets:
#	150
#	19147
#	39729
#	71879
#	100109
#	118894
#	155643
#	194485
#
# Disc length: 3037 seconds
#
# Revision: 0
# Processed by: cddbd v1.5.2PL0 Copyright (c) Steve Scherf et al.
# Submitted via: CDex 1.51
#
DISCID=730bdb08
DTITLE=Slow Dancing Society - The Sound Of Lights When Dim
DYEAR=2006
DGENRE=New Age
TTITLE0=Be There
TTITLE1=Radiance
TTITLE2=The Delicate Sound Of Silence
TTITLE3=A Song That Will Help You Remember To Forget
TTITLE4=The Warm Familiar Smell Of September
TTITLE5=West Of 4th (Kristina's Song)
TTITLE6=How Life Was Meant To Be Lived
TTITLE7=A Lonesome Sentiment
EXTD=YEAR: 2006
EXTT0=
EXTT1=
EXTT2=
EXTT3=
EXTT4=
EXTT5=
EXTT6=
EXTT7=
PLAYORDER=
